<svg width="48" height="48" viewBox="0 0 48 48" fill="none" xmlns="http://www.w3.org/2000/svg">
<path d="M19 35C20.6569 35 22 33.6569 22 32C22 30.3431 20.6569 29 19 29C17.3431 29 16 30.3431 16 32C16 33.6569 17.3431 35 19 35Z" fill="black"/>
<path d="M7 23V17H21.58C21.2 15.74 21 14.4 21 13H7.86C9.66 11.46 14.42 10.84 21.16 11.04C21.36 9.64 21.76 8.3 22.34 7.06C4.94 6.34 3 11.04 3 15V34C3 37.86 6.14 41 10 41L7 43V45H31V43L28 41C31.86 41 35 37.86 35 34V27C31.18 27 27.74 25.48 25.22 23H7ZM31 34C31 35.66 29.66 37 28 37H10C8.34 37 7 35.66 7 34V27H31V34Z" fill="black"/>
<path d="M35 3C29.48 3 25 7.48 25 13C25 18.52 29.48 23 35 23C40.52 23 45 18.52 45 13C45 7.48 40.52 3 35 3ZM36 19H34V17H36V19ZM36 15H34V7H36V15Z" fill="black"/>
</svg>
