<svg width="48" height="48" viewBox="0 0 48 48" fill="none" xmlns="http://www.w3.org/2000/svg">
<path d="M38 30.36V14C38 9.58 34.42 6 30 6C25.58 6 22 9.58 22 14V34C22 36.2 20.2 38 18 38C15.8 38 14 36.2 14 34V17.64C16.32 16.8 18 14.6 18 12C18 8.68 15.32 6 12 6C8.68 6 6 8.68 6 12C6 14.6 7.68 16.8 10 17.64V34C10 38.42 13.58 42 18 42C22.42 42 26 38.42 26 34V14C26 11.8 27.8 10 30 10C32.2 10 34 11.8 34 14V30.36C31.68 31.18 30 33.38 30 36C30 39.32 32.68 42 36 42C39.32 42 42 39.32 42 36C42 33.4 40.32 31.2 38 30.36ZM12 14C10.9 14 10 13.1 10 12C10 10.9 10.9 10 12 10C13.1 10 14 10.9 14 12C14 13.1 13.1 14 12 14ZM36 38C34.9 38 34 37.1 34 36C34 34.9 34.9 34 36 34C37.1 34 38 34.9 38 36C38 37.1 37.1 38 36 38Z" fill="black"/>
</svg>
